<svg xmlns="http://www.w3.org/2000/svg" xmlns:xlink="http://www.w3.org/1999/xlink" version="1.1" x="0px" y="0px" viewBox="0 0 96.4 115.3575" enable-background="new 0 0 96.4 92.286" xml:space="preserve"><path d="M4.809,25.136c3.52,0.685,6.928-1.613,7.617-5.132l0.004,0.001c0.076-0.366,0.593-1.823,1.346-2.708  c0.373-0.457,0.753-0.78,1.179-1.002c0.437-0.218,0.938-0.399,1.926-0.409c0.539,0.017,1.016,0.121,2.146,0.912  c1.665,1.15,3.907,3.837,6.798,6.685c1.473,1.414,3.17,2.887,5.343,4.097c2.152,1.206,4.874,2.097,7.833,2.086  c0.029,0,0.058,0,0.086,0c5.521,0,9.674-1.372,12.456-3.928c2.36-2.163,3.09-4.678,3.271-6.053c0.2-0.392,0.441-0.789,0.714-1.11  c0.375-0.457,0.755-0.778,1.182-1.003c0.434-0.217,0.938-0.397,1.925-0.407c0.538,0.017,1.018,0.12,2.145,0.912  c1.665,1.147,3.908,3.836,6.8,6.684c1.473,1.415,3.172,2.887,5.344,4.097c2.152,1.208,4.874,2.097,7.833,2.087h0.087  c5.521,0,9.674-1.372,12.456-3.929c2.806-2.573,3.316-5.663,3.327-6.715c0.148-3.586-2.641-6.614-6.227-6.76  c-2.809-0.117-5.271,1.567-6.28,4.023c-0.543,0.167-1.596,0.382-3.363,0.38c-0.622-0.017-1.14-0.145-2.28-0.935  c-1.682-1.147-3.917-3.811-6.775-6.646c-1.456-1.406-3.131-2.875-5.279-4.09c-2.128-1.212-4.835-2.118-7.786-2.105  c-3.379-0.016-6.485,0.933-8.882,2.416c-3.629,2.24-5.61,5.315-6.752,7.662c-0.374,0.778-0.656,1.485-0.88,2.109  c-0.591,0.152-1.586,0.315-3.121,0.313c-0.622-0.017-1.14-0.146-2.28-0.934c-1.681-1.148-3.917-3.813-6.775-6.646  c-1.457-1.409-3.131-2.876-5.28-4.092c-2.127-1.212-4.835-2.117-7.785-2.105C13.5,2.87,10.396,3.82,7.999,5.302  c-3.629,2.239-5.611,5.314-6.753,7.662c-1.14,2.378-1.502,4.181-1.578,4.551C-1.017,21.04,1.285,24.451,4.809,25.136z M4.808,53.517  c3.52,0.685,6.93-1.612,7.62-5.131h0.002c0.076-0.366,0.593-1.824,1.347-2.707c0.373-0.457,0.753-0.778,1.178-1.002  c0.436-0.216,0.94-0.399,1.927-0.408c0.538,0.015,1.017,0.12,2.146,0.91c1.663,1.151,3.907,3.837,6.798,6.685  c1.474,1.414,3.173,2.884,5.345,4.095c2.137,1.198,4.836,2.086,7.771,2.086h0.061c5.565,0.014,9.746-1.357,12.542-3.927  c2.357-2.161,3.089-4.673,3.271-6.049c0.201-0.393,0.442-0.79,0.716-1.112c0.375-0.457,0.755-0.779,1.182-1.003  c0.434-0.217,0.938-0.399,1.925-0.407c0.538,0.014,1.018,0.12,2.146,0.912c1.663,1.147,3.906,3.834,6.798,6.682  c1.473,1.414,3.172,2.887,5.344,4.097c2.152,1.207,4.874,2.097,7.833,2.086h0.087c5.521,0,9.672-1.372,12.456-3.927  c2.806-2.572,3.316-5.664,3.327-6.715c0.148-3.586-2.641-6.613-6.227-6.76c-2.807-0.116-5.271,1.565-6.28,4.021  c-0.542,0.167-1.596,0.382-3.363,0.38c-0.622-0.017-1.14-0.145-2.28-0.935c-1.682-1.148-3.917-3.81-6.775-6.645  c-1.458-1.408-3.131-2.876-5.279-4.09c-2.128-1.212-4.837-2.118-7.786-2.107c-3.379-0.015-6.485,0.935-8.882,2.417  c-3.629,2.24-5.61,5.314-6.752,7.66c-0.373,0.778-0.656,1.485-0.879,2.109c-0.591,0.152-1.586,0.315-3.122,0.314  c-0.62-0.017-1.139-0.146-2.279-0.935c-1.682-1.148-3.918-3.811-6.776-6.646c-1.458-1.408-3.131-2.876-5.278-4.091  c-2.129-1.21-4.836-2.117-7.787-2.106c-3.38-0.014-6.485,0.935-8.881,2.417c-3.632,2.238-5.61,5.313-6.753,7.661  c-1.141,2.378-1.501,4.181-1.579,4.552C-1.018,49.419,1.284,52.832,4.808,53.517z M90.399,70.303  c-2.807-0.115-5.271,1.567-6.28,4.023c-0.542,0.166-1.595,0.383-3.363,0.381c-0.62-0.019-1.14-0.146-2.278-0.935  c-1.682-1.149-3.919-3.812-6.777-6.648c-1.456-1.408-3.129-2.875-5.277-4.091c-2.128-1.212-4.837-2.117-7.786-2.107  c-3.381-0.014-6.485,0.936-8.884,2.418c-3.629,2.239-5.608,5.314-6.752,7.66c-0.374,0.779-0.657,1.486-0.881,2.112  c-0.591,0.151-1.585,0.314-3.119,0.313c-0.62-0.02-1.138-0.146-2.279-0.935c-1.682-1.148-3.917-3.813-6.776-6.647  c-1.457-1.407-3.13-2.876-5.278-4.093c-2.128-1.211-4.836-2.118-7.787-2.105c-3.38-0.015-6.485,0.934-8.883,2.417  c-3.63,2.239-5.609,5.313-6.751,7.661c-1.141,2.377-1.502,4.181-1.579,4.551c-0.686,3.524,1.616,6.936,5.14,7.621  c3.521,0.686,6.929-1.613,7.619-5.131l0.004,0.001c0.077-0.367,0.593-1.824,1.345-2.71c0.374-0.457,0.754-0.777,1.18-1.002  c0.436-0.217,0.938-0.399,1.925-0.407c0.537,0.015,1.017,0.12,2.145,0.911c1.665,1.148,3.909,3.836,6.799,6.686  c1.473,1.413,3.171,2.886,5.344,4.097c2.153,1.206,4.874,2.097,7.832,2.086h0.087c5.522,0,9.675-1.372,12.457-3.929  c2.357-2.163,3.089-4.678,3.271-6.052c0.201-0.393,0.442-0.79,0.716-1.111c0.372-0.457,0.754-0.779,1.179-1.003  c0.436-0.217,0.938-0.399,1.927-0.407c0.538,0.015,1.016,0.12,2.145,0.91c1.663,1.149,3.906,3.838,6.798,6.686  c1.473,1.414,3.172,2.887,5.344,4.097c2.152,1.208,4.874,2.097,7.833,2.087h0.087c5.522,0,9.677-1.372,12.458-3.93  c2.804-2.572,3.316-5.664,3.327-6.715C96.774,73.477,93.985,70.45,90.399,70.303z"/><text x="0" y="107.286" fill="#000000" font-size="5px" font-weight="bold" font-family="'Helvetica Neue', Helvetica, Arial-Unicode, Arial, Sans-serif">Created by Javier Cabezas</text><text x="0" y="112.286" fill="#000000" font-size="5px" font-weight="bold" font-family="'Helvetica Neue', Helvetica, Arial-Unicode, Arial, Sans-serif">from the Noun Project</text></svg>