<svg xmlns="http://www.w3.org/2000/svg" xmlns:xlink="http://www.w3.org/1999/xlink" version="1.1" x="0px" y="0px" viewBox="0 0 100 125" enable-background="new 0 0 100 100" xml:space="preserve"><path d="M70.833,0H62.5c-4.167,0-4.167,0-4.167,4.167V12.5c0,4.167,0,4.167,4.167,4.167h8.333c4.167,0,4.167,0,4.167-4.167V4.167  C75,0,75,0,70.833,0z M79.167,25H62.5c-4.167,0-4.167,0-4.167,4.167V37.5c0,4.167,0,4.167,4.167,4.167h16.667  c4.167,0,4.167,0,4.167-4.167v-8.333C83.333,25,83.333,25,79.167,25z M87.5,50h-25c-4.167,0-4.167,0-4.167,4.167V62.5  c0,4.167,0,4.167,4.167,4.167h25c4.167,0,4.167,0,4.167-4.167v-8.333C91.667,50,91.667,50,87.5,50z M95.833,75H62.5  c-4.167,0-4.167,0-4.167,4.167V87.5c0,4.167,0,4.167,4.167,4.167h33.333c4.167,0,4.167,0,4.167-4.167v-8.333  C100,75,100,75,95.833,75z M29.167,0h-8.333c-4.167,0-4.167,0-4.167,4.167v62.5H0L25,100l25-33.333H33.333v-62.5  C33.333,0,33.333,0,29.167,0z"/><text x="0" y="115" fill="#000000" font-size="5px" font-weight="bold" font-family="'Helvetica Neue', Helvetica, Arial-Unicode, Arial, Sans-serif">Created by Thomas Helbig</text><text x="0" y="120" fill="#000000" font-size="5px" font-weight="bold" font-family="'Helvetica Neue', Helvetica, Arial-Unicode, Arial, Sans-serif">from the Noun Project</text></svg>