<?xml version="1.0" encoding="UTF-8" standalone="no"?>
<svg width="82px" height="72px" viewBox="0 0 82 72" version="1.1" xmlns="http://www.w3.org/2000/svg" xmlns:xlink="http://www.w3.org/1999/xlink" xmlns:sketch="http://www.bohemiancoding.com/sketch/ns">
    <!-- Generator: Sketch 3.2.2 (9983) - http://www.bohemiancoding.com/sketch -->
    <title>Slice 1</title>
    <desc>Created with Sketch.</desc>
    <defs></defs>
    <g id="Page-1" stroke="none" stroke-width="1" fill="none" fill-rule="evenodd" sketch:type="MSPage">
        <g id="noun_7397_cc" sketch:type="MSLayerGroup" fill="#000000">
            <path d="M77.367,8.973 L71.543,8.973 L71.543,18.18 C71.543,22.137 68.308,25.374 64.353,25.374 C60.395,25.374 57.16,22.137 57.16,18.18 L57.16,8.973 L25.385,8.973 L25.385,18.18 C25.385,22.137 22.15,25.374 18.191,25.374 C14.236,25.374 10.999,22.137 10.999,18.18 L10.999,8.973 L5.176,8.973 C2.874,8.973 0.989,10.855 0.989,13.158 L0.989,67.798 C0.989,70.102 2.874,71.986 5.176,71.986 L6.376,71.986 L77.368,71.986 C79.671,71.986 81.556,70.102 81.556,67.798 L81.556,14.358 L81.556,13.158 C81.555,10.854 79.67,8.973 77.367,8.973 L77.367,8.973 Z M73.417,63.52 C73.417,65.823 71.535,67.705 69.23,67.705 L13.311,67.705 C11.011,67.705 9.127,65.823 9.127,63.52 L9.127,32.822 C9.127,30.521 11.011,28.637 13.311,28.637 L69.23,28.637 C71.535,28.637 73.417,30.521 73.417,32.822 L73.417,63.52 L73.417,63.52 Z" id="Shape" sketch:type="MSShapeGroup"></path>
            <path d="M18.19,20.809 C20.148,20.809 21.746,19.211 21.746,17.254 L21.746,4.236 C21.746,2.278 20.148,0.683 18.19,0.683 C16.235,0.683 14.638,2.278 14.638,4.236 L14.638,17.254 C14.638,19.211 16.236,20.809 18.19,20.809 L18.19,20.809 Z" id="Shape" sketch:type="MSShapeGroup"></path>
            <path d="M64.353,20.809 C66.307,20.809 67.906,19.211 67.906,17.254 L67.906,4.236 C67.906,2.278 66.307,0.683 64.353,0.683 C62.397,0.683 60.798,2.278 60.798,4.236 L60.798,17.254 C60.798,19.211 62.396,20.809 64.353,20.809 L64.353,20.809 Z" id="Shape" sketch:type="MSShapeGroup"></path>
            <path d="M21.733,32.052 L15.462,32.052 C14.813,32.052 14.287,32.578 14.287,33.228 L14.287,39.499 C14.287,40.147 14.813,40.675 15.462,40.675 L21.733,40.675 C22.382,40.675 22.909,40.148 22.909,39.499 L22.909,33.228 C22.909,32.578 22.382,32.052 21.733,32.052 L21.733,32.052 Z" id="Shape" sketch:type="MSShapeGroup"></path>
            <path d="M33.03,32.052 L26.759,32.052 C26.11,32.052 25.583,32.578 25.583,33.228 L25.583,39.499 C25.583,40.147 26.109,40.675 26.759,40.675 L33.03,40.675 C33.679,40.675 34.205,40.148 34.205,39.499 L34.205,33.228 C34.206,32.578 33.679,32.052 33.03,32.052 L33.03,32.052 Z" id="Shape" sketch:type="MSShapeGroup"></path>
            <path d="M44.327,32.052 L38.056,32.052 C37.407,32.052 36.88,32.578 36.88,33.228 L36.88,39.499 C36.88,40.147 37.407,40.675 38.056,40.675 L44.327,40.675 C44.975,40.675 45.502,40.148 45.502,39.499 L45.502,33.228 C45.502,32.578 44.976,32.052 44.327,32.052 L44.327,32.052 Z" id="Shape" sketch:type="MSShapeGroup"></path>
            <path d="M55.623,32.052 L49.353,32.052 C48.704,32.052 48.177,32.578 48.177,33.228 L48.177,39.499 C48.177,40.147 48.703,40.675 49.353,40.675 L55.623,40.675 C56.273,40.675 56.799,40.148 56.799,39.499 L56.799,33.228 C56.799,32.578 56.273,32.052 55.623,32.052 L55.623,32.052 Z" id="Shape" sketch:type="MSShapeGroup"></path>
            <path d="M66.92,32.052 L60.65,32.052 C60.001,32.052 59.474,32.578 59.474,33.228 L59.474,39.499 C59.474,40.147 60,40.675 60.65,40.675 L66.92,40.675 C67.569,40.675 68.096,40.148 68.096,39.499 L68.096,33.228 C68.096,32.578 67.569,32.052 66.92,32.052 L66.92,32.052 Z" id="Shape" sketch:type="MSShapeGroup"></path>
            <path d="M21.733,43.623 L15.462,43.623 C14.813,43.623 14.287,44.15 14.287,44.798 L14.287,51.069 C14.287,51.718 14.813,52.245 15.462,52.245 L21.733,52.245 C22.382,52.245 22.909,51.719 22.909,51.069 L22.909,44.798 C22.909,44.15 22.382,43.623 21.733,43.623 L21.733,43.623 Z" id="Shape" sketch:type="MSShapeGroup"></path>
            <path d="M33.03,43.623 L26.759,43.623 C26.11,43.623 25.583,44.15 25.583,44.798 L25.583,51.069 C25.583,51.718 26.109,52.245 26.759,52.245 L33.03,52.245 C33.679,52.245 34.205,51.719 34.205,51.069 L34.205,44.798 C34.206,44.15 33.679,43.623 33.03,43.623 L33.03,43.623 Z" id="Shape" sketch:type="MSShapeGroup"></path>
            <path d="M44.327,43.623 L38.056,43.623 C37.407,43.623 36.88,44.15 36.88,44.798 L36.88,51.069 C36.88,51.718 37.407,52.245 38.056,52.245 L44.327,52.245 C44.975,52.245 45.502,51.719 45.502,51.069 L45.502,44.798 C45.502,44.15 44.976,43.623 44.327,43.623 L44.327,43.623 Z" id="Shape" sketch:type="MSShapeGroup"></path>
            <path d="M55.623,43.623 L49.353,43.623 C48.704,43.623 48.177,44.15 48.177,44.798 L48.177,51.069 C48.177,51.718 48.703,52.245 49.353,52.245 L55.623,52.245 C56.273,52.245 56.799,51.719 56.799,51.069 L56.799,44.798 C56.799,44.15 56.273,43.623 55.623,43.623 L55.623,43.623 Z" id="Shape" sketch:type="MSShapeGroup"></path>
            <path d="M66.92,43.623 L60.65,43.623 C60.001,43.623 59.474,44.15 59.474,44.798 L59.474,51.069 C59.474,51.718 60,52.245 60.65,52.245 L66.92,52.245 C67.569,52.245 68.096,51.719 68.096,51.069 L68.096,44.798 C68.096,44.15 67.569,43.623 66.92,43.623 L66.92,43.623 Z" id="Shape" sketch:type="MSShapeGroup"></path>
            <path d="M21.733,55.194 L15.462,55.194 C14.813,55.194 14.287,55.72 14.287,56.37 L14.287,62.641 C14.287,63.289 14.813,63.817 15.462,63.817 L21.733,63.817 C22.382,63.817 22.909,63.29 22.909,62.641 L22.909,56.37 C22.909,55.721 22.382,55.194 21.733,55.194 L21.733,55.194 Z" id="Shape" sketch:type="MSShapeGroup"></path>
            <path d="M33.03,55.194 L26.759,55.194 C26.11,55.194 25.583,55.72 25.583,56.37 L25.583,62.641 C25.583,63.289 26.109,63.817 26.759,63.817 L33.03,63.817 C33.679,63.817 34.205,63.29 34.205,62.641 L34.205,56.37 C34.206,55.721 33.679,55.194 33.03,55.194 L33.03,55.194 Z" id="Shape" sketch:type="MSShapeGroup"></path>
            <path d="M44.327,55.194 L38.056,55.194 C37.407,55.194 36.88,55.72 36.88,56.37 L36.88,62.641 C36.88,63.289 37.407,63.817 38.056,63.817 L44.327,63.817 C44.975,63.817 45.502,63.29 45.502,62.641 L45.502,56.37 C45.502,55.721 44.976,55.194 44.327,55.194 L44.327,55.194 Z" id="Shape" sketch:type="MSShapeGroup"></path>
            <path d="M55.623,55.194 L49.353,55.194 C48.704,55.194 48.177,55.72 48.177,56.37 L48.177,62.641 C48.177,63.289 48.703,63.817 49.353,63.817 L55.623,63.817 C56.273,63.817 56.799,63.29 56.799,62.641 L56.799,56.37 C56.799,55.721 56.273,55.194 55.623,55.194 L55.623,55.194 Z" id="Shape" sketch:type="MSShapeGroup"></path>
            <path d="M66.92,55.194 L60.65,55.194 C60.001,55.194 59.474,55.72 59.474,56.37 L59.474,62.641 C59.474,63.289 60,63.817 60.65,63.817 L66.92,63.817 C67.569,63.817 68.096,63.29 68.096,62.641 L68.096,56.37 C68.096,55.721 67.569,55.194 66.92,55.194 L66.92,55.194 Z" id="Shape" sketch:type="MSShapeGroup"></path>
        </g>
    </g>
</svg>