<?xml version="1.0" encoding="UTF-8" standalone="no"?>
<svg width="90px" height="76px" viewBox="0 0 90 76" version="1.1" xmlns="http://www.w3.org/2000/svg" xmlns:xlink="http://www.w3.org/1999/xlink" xmlns:sketch="http://www.bohemiancoding.com/sketch/ns">
    <!-- Generator: Sketch 3.2.2 (9983) - http://www.bohemiancoding.com/sketch -->
    <title>Slice 1</title>
    <desc>Created with Sketch.</desc>
    <defs></defs>
    <g id="Page-1" stroke="none" stroke-width="1" fill="none" fill-rule="evenodd" sketch:type="MSPage">
        <g id="noun_72961_cc" sketch:type="MSLayerGroup" fill="#000000">
            <path d="M89.164,2.076 C88.855,1.324 88.12,0.832 87.312,0.832 L2.684,0.832 C1.872,0.832 1.14,1.324 0.836,2.076 C0.528,2.828 0.704,3.684 1.28,4.252 L35,37.524 L35,73.164 C35,73.876 35.38,74.536 35.996,74.9 C36.308,75.08 36.652,75.164 37,75.164 C37.34,75.164 37.684,75.08 37.992,74.908 L53.992,65.788 C54.616,65.432 55,64.768 55,64.048 L55,37.524 L88.721,4.256 C89.292,3.684 89.468,2.824 89.164,2.076 L89.164,2.076 Z" id="Shape" sketch:type="MSShapeGroup"></path>
        </g>
    </g>
</svg>