<?xml version="1.0" encoding="UTF-8" standalone="no"?>
<svg width="81px" height="80px" viewBox="0 0 81 80" version="1.1" xmlns="http://www.w3.org/2000/svg" xmlns:xlink="http://www.w3.org/1999/xlink" xmlns:sketch="http://www.bohemiancoding.com/sketch/ns">
    <!-- Generator: Sketch 3.2.2 (9983) - http://www.bohemiancoding.com/sketch -->
    <title>Slice 1</title>
    <desc>Created with Sketch.</desc>
    <defs></defs>
    <g id="Page-1" stroke="none" stroke-width="1" fill="none" fill-rule="evenodd" sketch:type="MSPage">
        <g id="noun_22802_cc" sketch:type="MSLayerGroup" fill="#000000">
            <path d="M80.141,25.617 C77.25,12.852 68.844,4.405 59.699,0.364 C71.07,10.382 81.545,29.769 68.513,47.433 C63.107,54.764 52.296,57.661 47.767,55.617 C47.767,55.617 54.769,54.13 59.124,50.322 C67.593,42.305 70.423,29.39 63.644,17.649 C62.675,15.971 61.546,14.443 60.287,13.074 C60.269,13.053 60.254,13.032 60.236,13.012 C55.472,7.329 48.929,3.937 41.899,2.896 C32.772,1.181 21.003,3.411 12.189,11.562 C2.58,20.45 -0.532,31.953 0.542,41.895 C3.531,27.037 15.084,8.273 36.897,10.724 C45.95,11.743 53.862,19.656 54.358,24.601 C54.358,24.601 49.081,16.32 35.993,16.32 C35.753,16.324 35.246,16.344 35.232,16.344 C35.177,16.347 35.121,16.35 35.065,16.354 C26.555,16.687 18.282,21.138 13.235,29.88 C12.266,31.557 11.508,33.299 10.951,35.075 C10.941,35.099 10.932,35.125 10.923,35.149 C8.384,42.117 8.718,49.479 11.33,56.087 C14.409,64.85 22.226,73.928 33.691,77.484 C46.193,81.362 57.711,78.304 65.783,72.405 C51.42,77.242 29.394,76.621 20.61,56.506 C16.965,48.156 19.861,37.347 23.897,34.445 C23.897,34.445 19.363,43.155 25.909,54.489 C30.391,61.973 38.526,67.147 48.858,67.147 C49.356,67.147 53.346,66.836 54.784,66.514 C54.811,66.511 54.839,66.506 54.864,66.503 C62.167,65.217 68.376,61.247 72.792,55.681 C78.842,48.635 82.795,37.325 80.141,25.617 L80.141,25.617 Z" id="Shape" sketch:type="MSShapeGroup"></path>
        </g>
    </g>
</svg>