<?xml version="1.0" encoding="UTF-8" standalone="no"?>
<svg width="98px" height="86px" viewBox="0 0 98 86" version="1.1" xmlns="http://www.w3.org/2000/svg" xmlns:xlink="http://www.w3.org/1999/xlink" xmlns:sketch="http://www.bohemiancoding.com/sketch/ns">
    <!-- Generator: Sketch 3.2.2 (9983) - http://www.bohemiancoding.com/sketch -->
    <title>Slice 1</title>
    <desc>Created with Sketch.</desc>
    <defs></defs>
    <g id="Page-1" stroke="none" stroke-width="1" fill="none" fill-rule="evenodd" sketch:type="MSPage">
        <g id="noun_6561_cc" sketch:type="MSLayerGroup" fill="#000000">
            <path d="M5.809,23.136 C9.329,23.821 12.737,21.523 13.426,18.004 L13.43,18.005 C13.506,17.639 14.023,16.182 14.776,15.297 C15.149,14.84 15.529,14.517 15.955,14.295 C16.392,14.077 16.893,13.896 17.881,13.886 C18.42,13.903 18.897,14.007 20.027,14.798 C21.692,15.948 23.934,18.635 26.825,21.483 C28.298,22.897 29.995,24.37 32.168,25.58 C34.32,26.786 37.042,27.677 40.001,27.666 L40.087,27.666 C45.608,27.666 49.761,26.294 52.543,23.738 C54.903,21.575 55.633,19.06 55.814,17.685 C56.014,17.293 56.255,16.896 56.528,16.575 C56.903,16.118 57.283,15.797 57.71,15.572 C58.144,15.355 58.648,15.175 59.635,15.165 C60.173,15.182 60.653,15.285 61.78,16.077 C63.445,17.224 65.688,19.913 68.58,22.761 C70.053,24.176 71.752,25.648 73.924,26.858 C76.076,28.066 78.798,28.955 81.757,28.945 L81.844,28.945 C87.365,28.945 91.518,27.573 94.3,25.016 C97.106,22.443 97.616,19.353 97.627,18.301 C97.775,14.715 94.986,11.687 91.4,11.541 C88.591,11.424 86.129,13.108 85.12,15.564 C84.577,15.731 83.524,15.946 81.757,15.944 C81.135,15.927 80.617,15.799 79.477,15.009 C77.795,13.862 75.56,11.198 72.702,8.363 C71.246,6.957 69.571,5.488 67.423,4.273 C65.295,3.061 62.588,2.155 59.637,2.168 C56.258,2.152 53.152,3.101 50.755,4.584 C47.126,6.824 45.145,9.899 44.003,12.246 C43.629,13.024 43.347,13.731 43.123,14.355 C42.532,14.507 41.537,14.67 40.002,14.668 C39.38,14.651 38.862,14.522 37.722,13.734 C36.041,12.586 33.805,9.921 30.947,7.088 C29.49,5.679 27.816,4.212 25.667,2.996 C23.54,1.784 20.832,0.879 17.882,0.891 C14.5,0.87 11.396,1.82 8.999,3.302 C5.37,5.541 3.388,8.616 2.246,10.964 C1.106,13.342 0.744,15.145 0.668,15.515 C-0.017,19.04 2.285,22.451 5.809,23.136 L5.809,23.136 Z M5.808,51.517 C9.328,52.202 12.738,49.905 13.428,46.386 L13.43,46.386 C13.506,46.02 14.023,44.562 14.777,43.679 C15.15,43.222 15.53,42.901 15.955,42.677 C16.391,42.461 16.895,42.278 17.882,42.269 C18.42,42.284 18.899,42.389 20.028,43.179 C21.691,44.33 23.935,47.016 26.826,49.864 C28.3,51.278 29.999,52.748 32.171,53.959 C34.308,55.157 37.007,56.045 39.942,56.045 L40.003,56.045 C45.568,56.059 49.749,54.688 52.545,52.118 C54.902,49.957 55.634,47.445 55.816,46.069 C56.017,45.676 56.258,45.279 56.532,44.957 C56.907,44.5 57.287,44.178 57.714,43.954 C58.148,43.737 58.652,43.555 59.639,43.547 C60.177,43.561 60.657,43.667 61.785,44.459 C63.448,45.606 65.691,48.293 68.583,51.141 C70.056,52.555 71.755,54.028 73.927,55.238 C76.079,56.445 78.801,57.335 81.76,57.324 L81.847,57.324 C87.368,57.324 91.519,55.952 94.303,53.397 C97.109,50.825 97.619,47.733 97.63,46.682 C97.778,43.096 94.989,40.069 91.403,39.922 C88.596,39.806 86.132,41.487 85.123,43.943 C84.581,44.11 83.527,44.325 81.76,44.323 C81.138,44.306 80.62,44.178 79.48,43.388 C77.798,42.24 75.563,39.578 72.705,36.743 C71.247,35.335 69.574,33.867 67.426,32.653 C65.298,31.441 62.589,30.535 59.64,30.546 C56.261,30.531 53.155,31.481 50.758,32.963 C47.129,35.203 45.148,38.277 44.006,40.623 C43.633,41.401 43.35,42.108 43.127,42.732 C42.536,42.884 41.541,43.047 40.005,43.046 C39.385,43.029 38.866,42.9 37.726,42.111 C36.044,40.963 33.808,38.3 30.95,35.465 C29.492,34.057 27.819,32.589 25.672,31.374 C23.543,30.164 20.836,29.257 17.885,29.268 C14.505,29.254 11.4,30.203 9.004,31.685 C5.372,33.923 3.394,36.998 2.251,39.346 C1.11,41.724 0.75,43.527 0.672,43.898 C-0.018,47.419 2.284,50.832 5.808,51.517 L5.808,51.517 Z M91.399,68.303 C88.592,68.188 86.128,69.87 85.119,72.326 C84.577,72.492 83.524,72.709 81.756,72.707 C81.136,72.688 80.616,72.561 79.478,71.772 C77.796,70.623 75.559,67.96 72.701,65.124 C71.245,63.716 69.572,62.249 67.424,61.033 C65.296,59.821 62.587,58.916 59.638,58.926 C56.257,58.912 53.153,59.862 50.754,61.344 C47.125,63.583 45.146,66.658 44.002,69.004 C43.628,69.783 43.345,70.49 43.121,71.116 C42.53,71.267 41.536,71.43 40.002,71.429 C39.382,71.409 38.864,71.283 37.723,70.494 C36.041,69.346 33.806,66.681 30.947,63.847 C29.49,62.44 27.817,60.971 25.669,59.754 C23.541,58.543 20.833,57.636 17.882,57.649 C14.502,57.634 11.397,58.583 8.999,60.066 C5.369,62.305 3.39,65.379 2.248,67.727 C1.107,70.104 0.746,71.908 0.669,72.278 C-0.017,75.802 2.285,79.214 5.809,79.899 C9.33,80.585 12.738,78.286 13.428,74.768 L13.432,74.769 C13.509,74.402 14.025,72.945 14.777,72.059 C15.151,71.602 15.531,71.282 15.957,71.057 C16.393,70.84 16.895,70.658 17.882,70.65 C18.419,70.665 18.899,70.77 20.027,71.561 C21.692,72.709 23.936,75.397 26.826,78.247 C28.299,79.66 29.997,81.133 32.17,82.344 C34.323,83.55 37.044,84.441 40.002,84.43 L40.089,84.43 C45.611,84.43 49.764,83.058 52.546,80.501 C54.903,78.338 55.635,75.823 55.817,74.449 C56.018,74.056 56.259,73.659 56.533,73.338 C56.905,72.881 57.287,72.559 57.712,72.335 C58.148,72.118 58.65,71.936 59.639,71.928 C60.177,71.943 60.655,72.048 61.784,72.838 C63.447,73.987 65.69,76.676 68.582,79.524 C70.055,80.938 71.754,82.411 73.926,83.621 C76.078,84.829 78.8,85.718 81.759,85.708 L81.846,85.708 C87.368,85.708 91.523,84.336 94.304,81.778 C97.108,79.206 97.62,76.114 97.631,75.063 C97.774,71.477 94.985,68.45 91.399,68.303 L91.399,68.303 Z" id="Shape" sketch:type="MSShapeGroup"></path>
        </g>
    </g>
</svg>