<?xml version="1.0" encoding="UTF-8" standalone="no"?>
<svg width="100px" height="100px" viewBox="0 0 100 100" version="1.1" xmlns="http://www.w3.org/2000/svg" xmlns:xlink="http://www.w3.org/1999/xlink" xmlns:sketch="http://www.bohemiancoding.com/sketch/ns">
    <!-- Generator: Sketch 3.2.2 (9983) - http://www.bohemiancoding.com/sketch -->
    <title>Slice 1</title>
    <desc>Created with Sketch.</desc>
    <defs></defs>
    <g id="Page-1" stroke="none" stroke-width="1" fill="none" fill-rule="evenodd" sketch:type="MSPage">
        <g id="noun_120501_cc" sketch:type="MSLayerGroup" fill="#000000">
            <path d="M70.833,0 L62.5,0 C58.333,0 58.333,0 58.333,4.167 L58.333,12.5 C58.333,16.667 58.333,16.667 62.5,16.667 L70.833,16.667 C75,16.667 75,16.667 75,12.5 L75,4.167 C75,0 75,0 70.833,0 L70.833,0 Z M79.167,25 L62.5,25 C58.333,25 58.333,25 58.333,29.167 L58.333,37.5 C58.333,41.667 58.333,41.667 62.5,41.667 L79.167,41.667 C83.334,41.667 83.334,41.667 83.334,37.5 L83.334,29.167 C83.333,25 83.333,25 79.167,25 L79.167,25 Z M87.5,50 L62.5,50 C58.333,50 58.333,50 58.333,54.167 L58.333,62.5 C58.333,66.667 58.333,66.667 62.5,66.667 L87.5,66.667 C91.667,66.667 91.667,66.667 91.667,62.5 L91.667,54.167 C91.667,50 91.667,50 87.5,50 L87.5,50 Z M95.833,75 L62.5,75 C58.333,75 58.333,75 58.333,79.167 L58.333,87.5 C58.333,91.667 58.333,91.667 62.5,91.667 L95.833,91.667 C100,91.667 100,91.667 100,87.5 L100,79.167 C100,75 100,75 95.833,75 L95.833,75 Z M29.167,0 L20.834,0 C16.667,0 16.667,0 16.667,4.167 L16.667,66.667 L0,66.667 L25,100 L50,66.667 L33.333,66.667 L33.333,4.167 C33.333,0 33.333,0 29.167,0 L29.167,0 Z" id="Shape" sketch:type="MSShapeGroup"></path>
        </g>
    </g>
</svg>