<?xml version="1.0" encoding="UTF-8" standalone="no"?>
<svg width="70px" height="100px" viewBox="0 0 70 100" version="1.1" xmlns="http://www.w3.org/2000/svg" xmlns:xlink="http://www.w3.org/1999/xlink" xmlns:sketch="http://www.bohemiancoding.com/sketch/ns">
    <!-- Generator: Sketch 3.2.2 (9983) - http://www.bohemiancoding.com/sketch -->
    <title>Slice 1</title>
    <desc>Created with Sketch.</desc>
    <defs></defs>
    <g id="Page-1" stroke="none" stroke-width="1" fill="none" fill-rule="evenodd" sketch:type="MSPage">
        <g id="noun_5650_cc" sketch:type="MSLayerGroup" fill="#000000">
            <g id="Group" transform="translate(50.000000, 0.000000)" sketch:type="MSShapeGroup">
                <path d="M0,94.34 C0,97.466 2.534,100 5.66,100 L14.34,100 C17.466,100 20,97.466 20,94.34 L20,5.66 C20,2.534 17.466,0 14.34,0 L5.66,0 C2.534,0 0,2.534 0,5.66 L0,94.34 L0,94.34 Z" id="Shape"></path>
            </g>
            <g id="Group-2" sketch:type="MSShapeGroup">
                <path d="M0,94.34 C0,97.466 2.534,100 5.66,100 L14.34,100 C17.466,100 20,97.466 20,94.34 L20,5.66 C20,2.534 17.466,0 14.34,0 L5.66,0 C2.534,0 0,2.534 0,5.66 L0,94.34 L0,94.34 Z" id="Shape"></path>
            </g>
        </g>
    </g>
</svg>